<?xml version="1.0" standalone="no"?>
<!DOCTYPE svg PUBLIC "-//W3C//DTD SVG 20010904//EN"
 "http://www.w3.org/TR/2001/REC-SVG-20010904/DTD/svg10.dtd">
<svg version="1.0" xmlns="http://www.w3.org/2000/svg"
 width="700.000000pt" height="700.000000pt" viewBox="0 0 700.000000 700.000000"
 preserveAspectRatio="xMidYMid meet">
<metadata>
Created by potrace 1.11, written by Peter Selinger 2001-2013
</metadata>
<g transform="translate(0.000000,700.000000) scale(0.100000,-0.100000)"
fill="#000000" stroke="none">
<path d="M830 6860 c-19 -4 -48 -11 -65 -13 -128 -22 -301 -119 -423 -239
-150 -147 -242 -316 -282 -522 -15 -74 -19 -250 -8 -324 4 -31 11 -73 13 -92
8 -52 22 -103 61 -222 135 -411 557 -955 946 -1219 257 -175 626 -333 1015
-434 141 -37 443 -99 533 -110 30 -4 57 -8 60 -10 3 -2 39 -6 80 -10 41 -3 82
-8 90 -10 8 -2 44 -7 80 -10 36 -3 81 -7 100 -9 19 -3 91 -8 159 -11 l123 -7
-6 78 c-8 113 -15 180 -26 254 -5 36 -12 85 -15 110 -14 107 -27 179 -71 400
-65 322 -197 714 -335 992 -67 135 -63 128 -134 247 -178 296 -510 624 -880
867 -228 150 -426 235 -680 291 -53 12 -291 14 -335 3z"/>
<path d="M5738 6805 c-2 -1 -42 -5 -90 -9 -338 -24 -742 -217 -1113 -530 -116
-99 -288 -268 -336 -331 -13 -16 -26 -32 -29 -35 -3 -3 -17 -21 -30 -40 -13
-19 -30 -41 -36 -48 -33 -33 -146 -228 -210 -362 -81 -168 -125 -278 -179
-443 -57 -179 -82 -272 -130 -502 -37 -180 -40 -196 -50 -260 -3 -23 -7 -50
-9 -60 -2 -11 -7 -49 -11 -85 -4 -36 -9 -72 -10 -80 -1 -8 -6 -46 -10 -85 -4
-38 -9 -83 -11 -100 -2 -16 -6 -91 -10 -167 l-6 -136 38 3 c56 4 185 16 214
20 14 2 93 13 175 25 83 11 161 22 175 25 27 6 59 11 113 21 287 49 742 187
1002 305 28 12 52 23 55 24 20 5 194 99 283 152 166 100 300 204 432 337 415
419 654 805 741 1196 19 85 26 312 12 374 -5 23 -11 52 -13 66 -5 38 -39 129
-70 190 -91 180 -249 337 -430 427 -69 35 -162 68 -220 79 -49 10 -54 11 -57
13 -2 1 -30 4 -63 7 -33 2 -72 6 -87 8 -15 2 -28 3 -30 1z"/>
<path d="M3237 3434 c-1 -1 -35 -5 -75 -9 -41 -3 -81 -8 -90 -10 -9 -1 -42 -6
-72 -10 -30 -4 -62 -9 -70 -10 -8 -1 -40 -6 -70 -10 -117 -14 -415 -76 -579
-120 -467 -125 -879 -312 -1174 -533 -142 -106 -369 -336 -513 -517 -21 -27
-43 -55 -49 -62 -5 -7 -15 -18 -21 -25 -5 -7 -49 -71 -96 -143 -85 -128 -168
-283 -206 -380 -10 -27 -22 -59 -27 -70 -25 -63 -65 -238 -74 -328 -13 -129 1
-258 40 -381 84 -264 308 -491 589 -595 126 -47 333 -68 472 -49 35 5 74 10
88 12 184 25 480 152 699 298 72 49 223 160 247 182 6 6 39 34 72 61 61 49
274 262 322 320 214 261 404 660 526 1100 24 89 72 287 80 335 3 14 11 59 19
100 8 41 17 93 20 115 4 22 10 65 15 95 5 30 12 80 15 110 3 30 8 71 10 90 13
118 17 152 20 210 3 36 7 102 11 148 l5 83 -66 -3 c-37 -1 -67 -4 -68 -4z"/>
<path d="M3614 3263 c3 -54 8 -109 10 -123 3 -14 8 -52 11 -85 10 -82 12 -99
19 -142 4 -21 9 -56 11 -78 3 -22 7 -51 10 -65 12 -55 16 -77 21 -110 3 -19
13 -66 21 -105 8 -38 19 -88 23 -110 59 -286 206 -701 341 -965 162 -317 334
-533 631 -793 348 -305 739 -519 1028 -562 20 -3 47 -8 60 -11 44 -9 234 -6
300 6 285 49 535 242 673 516 227 451 70 1051 -431 1649 -113 134 -305 323
-409 401 -230 174 -579 342 -928 447 -202 61 -480 125 -659 153 -21 3 -48 7
-60 10 -11 2 -46 6 -76 10 -30 3 -65 7 -76 9 -20 3 -49 6 -179 20 -54 6 -152
14 -259 20 l-88 6 6 -98z"/>
</g>
</svg>
