<?xml version="1.0" encoding="UTF-8" standalone="no"?>
<svg width="269px" height="64px" viewBox="0 0 269 64" version="1.1" xmlns="http://www.w3.org/2000/svg" xmlns:xlink="http://www.w3.org/1999/xlink">
    <title>Group 2</title>
    <g id="Symbols" stroke="none" stroke-width="1" fill="none" fill-rule="evenodd">
        <g id="logo">
            <g transform="translate(-16.000000, -2.000000)" id="Group-2">
                <g>
                    <path d="M63,65.3641304 L63,60.7717391 L65.0191313,60.7717391 L65.0191313,45.2282609 L63,45.2282609 L63,40.6711957 L75.9851027,40.6711957 C78.8861679,40.6711957 81.0329239,41.195194 82.4254352,42.2432065 C83.8179464,43.291219 84.5141916,44.7807874 84.5141916,46.7119565 C84.5141916,47.4655835 84.4561712,48.1191096 84.3401286,48.6725543 C84.224086,49.2259991 84.0384206,49.7205594 83.7831269,50.15625 C83.5278331,50.5919406 83.1797105,50.974636 82.7387486,51.3043478 C82.2977867,51.6340596 81.7523947,51.9284407 81.1025561,52.1875 C81.7291861,52.3759067 82.3209945,52.6290745 82.8779991,52.9470109 C83.4350036,53.2649472 83.9223752,53.6711932 84.3401286,54.1657609 C84.757882,54.6603286 85.0885984,55.2432032 85.3322879,55.9144022 C85.5759774,56.5856012 85.6978203,57.3451045 85.6978203,58.1929348 C85.6978203,60.6893241 84.9609608,62.5085994 83.4872197,63.6508152 C82.0134786,64.7930311 79.5940265,65.3641304 76.228791,65.3641304 L63,65.3641304 Z M75.0103497,60.7717391 C75.7530224,60.7717391 76.4086533,60.5067961 76.977262,59.9769022 C77.5458708,59.4470082 77.8301709,58.6992802 77.8301709,57.7336957 C77.8301709,56.8387636 77.5864851,56.0969232 77.0991062,55.5081522 C76.6117272,54.9193811 75.8806698,54.625 74.9059119,54.625 L72.2253411,54.625 L72.2253411,60.7717391 L75.0103497,60.7717391 Z M72.2253411,45.3342391 L72.2253411,50.6331522 L74.3489101,50.6331522 C75.277251,50.6331522 75.9038717,50.3917597 76.228791,49.9089674 C76.5537103,49.4261751 76.7161675,48.7608738 76.7161675,47.9130435 C76.7161675,47.088764 76.5014919,46.4529008 76.0721342,46.0054348 C75.6427766,45.5579688 75.0915825,45.3342391 74.4185354,45.3342391 L72.2253411,45.3342391 Z M86.9162616,40.6711957 L98.2303591,40.6711957 C100.2495,40.6711957 101.885677,40.8595996 103.138937,41.236413 C104.392197,41.6132265 105.372742,42.1313373 106.080602,42.7907609 C106.788462,43.4501845 107.26423,44.221463 107.507919,45.1046196 C107.751609,45.9877762 107.873451,46.9356833 107.873451,47.9483696 C107.873451,48.631344 107.745807,49.2672072 107.490513,49.8559783 C107.235219,50.4447493 106.881294,50.9569725 106.428728,51.392663 C105.976162,51.8283536 105.442374,52.1933862 104.827348,52.4877717 C104.212322,52.7821573 103.545087,52.9764488 102.825623,53.0706522 C103.429045,53.1648555 104.003447,53.3591471 104.548847,53.6535326 C105.094248,53.9479181 105.575817,54.3188383 105.993571,54.7663043 C106.411324,55.2137704 106.747843,55.7201059 107.003136,56.2853261 C107.25843,56.8505463 107.386075,57.4510838 107.386075,58.0869565 C107.386075,58.8405835 107.444095,59.4293457 107.560138,59.8532609 C107.676181,60.277176 107.896658,60.4891304 108.221578,60.4891304 C108.755374,60.4891304 109.022268,60.1123226 109.022268,59.3586957 L109.022268,58.1929348 L111.354712,58.1929348 L111.354712,60.1358696 C111.354712,60.8659457 111.273484,61.5724604 111.111024,62.2554348 C110.948564,62.9384092 110.670066,63.5389467 110.275521,64.0570652 C109.880977,64.5751837 109.358793,64.9932049 108.708954,65.3111413 C108.059115,65.6290777 107.246829,65.7880435 106.272072,65.7880435 C103.974428,65.7880435 102.274429,65.2110565 101.172024,64.0570652 C100.06962,62.9030739 99.5184256,61.2898654 99.5184256,59.2173913 C99.5184256,58.4166627 99.4836133,57.757249 99.4139878,57.2391304 C99.3443622,56.7210119 99.187707,56.314766 98.9440176,56.0203804 C98.7003281,55.7259949 98.3464034,55.5199281 97.882233,55.4021739 C97.4180626,55.2844197 96.803046,55.2255435 96.0371648,55.2255435 L96.0371648,60.701087 L98.1607339,60.701087 L98.1607339,65.3641304 L86.9162616,65.3641304 L86.9162616,60.701087 L88.8657676,60.701087 L88.8657676,45.298913 L86.9162616,45.298913 L86.9162616,40.6711957 Z M96.0371648,45.263587 L96.0371648,51.2690217 L97.6037322,51.2690217 C98.6249071,51.2690217 99.4371932,51.0276292 100.040615,50.544837 C100.644036,50.0620447 100.945743,49.3496424 100.945743,48.4076087 C100.945743,47.3478208 100.673046,46.5588794 100.127646,46.0407609 C99.582246,45.5226423 98.7989701,45.263587 97.7777952,45.263587 L96.0371648,45.263587 Z M124.687941,66 C122.877676,66 121.206688,65.7291694 119.674926,65.1875 C118.143163,64.6458306 116.826099,63.8333387 115.723695,62.75 C114.62129,61.6666613 113.762587,60.3066205 113.147562,58.669837 C112.532536,57.0330534 112.225027,55.1078009 112.225027,52.8940217 C112.225027,50.9864035 112.520932,49.2436673 113.112749,47.6657609 C113.704566,46.0878544 114.54006,44.7278137 115.619257,43.5855978 C116.698453,42.443382 117.986507,41.5602386 119.483456,40.9361413 C120.980406,40.312044 122.633988,40 124.444253,40 C126.579437,40 128.430289,40.312044 129.996864,40.9361413 C131.563439,41.5602386 132.863097,42.443382 133.895876,43.5855978 C134.928655,44.7278137 135.694525,46.1114049 136.193508,47.736413 C136.692491,49.3614212 136.941979,51.1630336 136.941979,53.1413043 C136.941979,55.143126 136.675085,56.9388507 136.141289,58.5285326 C135.607493,60.1182145 134.818415,61.46648 133.774032,62.5733696 C132.729648,63.6802592 131.447397,64.5280768 129.927239,65.1168478 C128.40708,65.7056189 126.660665,66 124.687941,66 Z M124.687941,60.4538043 C125.244946,60.4538043 125.738119,60.2771757 126.167477,59.923913 C126.596835,59.5706504 126.968165,59.0760901 127.28148,58.4402174 C127.594795,57.8043446 127.832679,57.0389538 127.995139,56.1440217 C128.157598,55.2490897 128.238827,54.2481939 128.238827,53.1413043 C128.238827,52.0579656 128.1634,51.0511822 128.012545,50.1209239 C127.86169,49.1906656 127.629608,48.3781738 127.316293,47.6834239 C127.002978,46.9886741 126.602637,46.4411252 126.115258,46.0407609 C125.627879,45.6403965 125.047675,45.4402174 124.374628,45.4402174 C123.840832,45.4402174 123.359262,45.6227337 122.929904,45.9877717 C122.500547,46.3528098 122.129216,46.8650329 121.815901,47.5244565 C121.502586,48.1838801 121.2589,48.9728215 121.084836,49.8913043 C120.910772,50.8097872 120.823742,51.810683 120.823742,52.8940217 C120.823742,54.048013 120.922376,55.0901222 121.119649,56.0203804 C121.316921,56.9506387 121.583815,57.7454677 121.920339,58.4048913 C122.256862,59.0643149 122.663005,59.5706504 123.13878,59.923913 C123.614555,60.2771757 124.130937,60.4538043 124.687941,60.4538043 Z M149.300455,45.2282609 L147.420574,45.2282609 L147.420574,50.986413 L153.895719,45.2282609 L151.389211,45.2282609 L151.389211,40.6711957 L162.98181,40.6711957 L162.98181,45.2282609 L160.962678,45.2282609 L155.91485,49.6440217 L162.946997,60.7717391 L164.966128,60.7717391 L164.966128,65.3641304 L151.389211,65.3641304 L151.389211,60.7717391 L153.756469,60.7717391 L149.996707,54.7663043 L147.420574,56.9918478 L147.420574,60.7717391 L149.300455,60.7717391 L149.300455,65.3641304 L138.334483,65.3641304 L138.334483,60.7717391 L140.214364,60.7717391 L140.214364,45.2282609 L138.334483,45.2282609 L138.334483,40.6711957 L149.300455,40.6711957 L149.300455,45.2282609 Z M190.866708,46.888587 C190.797083,47.2889513 190.715854,47.7246353 190.62302,48.1956522 C190.530186,48.666669 190.437353,49.1200159 190.344519,49.5557065 C190.251685,49.9913971 190.158853,50.3917554 190.066019,50.7567935 C189.973184,51.1218315 189.90356,51.410325 189.857143,51.6222826 L186.201819,65.3641304 L178.925984,65.3641304 L175.026972,51.2690217 C174.980555,51.1277167 174.922534,50.8980994 174.852909,50.580163 C174.783283,50.2622267 174.713659,49.9030817 174.644033,49.5027174 C174.574408,49.1023531 174.504783,48.6784443 174.435158,48.2309783 C174.365532,47.7835123 174.319116,47.336053 174.295907,46.888587 L174.156657,46.888587 L174.156657,60.8070652 L176.140975,60.8070652 L176.140975,65.3641304 L166.706759,65.3641304 L166.706759,60.8070652 L168.586639,60.8070652 L168.586639,45.2282609 L166.741571,45.2282609 L166.741571,40.6711957 L179.93555,40.6711957 L183.451623,53.8831522 L186.793633,40.6711957 L200.057237,40.6711957 L200.057237,45.2282609 L198.142544,45.2282609 L198.142544,60.7717391 L200.057237,60.7717391 L200.057237,65.3641304 L189.056453,65.3641304 L189.056453,60.7717391 L191.040772,60.7717391 L191.040772,46.888587 L190.866708,46.888587 Z M201.797867,40.6711957 L222.78987,40.6711957 L222.78987,48.4782609 L216.767289,48.4782609 L216.767289,45.3342391 L211.197271,45.3342391 L211.197271,50.2092391 L217.811667,50.2092391 L217.811667,54.9076087 L211.197271,54.9076087 L211.197271,60.6657609 L216.767289,60.6657609 L216.767289,57.3804348 L222.78987,57.3804348 L222.78987,65.3641304 L201.797867,65.3641304 L201.797867,60.6657609 L203.991062,60.6657609 L203.991062,45.3342391 L201.797867,45.3342391 L201.797867,40.6711957 Z M224.5305,40.6711957 L236.088286,40.6711957 L236.088286,45.3342391 L233.929904,45.3342391 L233.929904,60.6657609 L236.088286,60.6657609 L236.088286,65.3641304 L224.5305,65.3641304 L224.5305,60.6657609 L226.723695,60.6657609 L226.723695,45.3342391 L224.5305,45.3342391 L224.5305,40.6711957 Z M237.828916,40.6711957 L258.820919,40.6711957 L258.820919,48.4782609 L252.798338,48.4782609 L252.798338,45.3342391 L247.228321,45.3342391 L247.228321,50.2092391 L253.842716,50.2092391 L253.842716,54.9076087 L247.228321,54.9076087 L247.228321,60.6657609 L252.798338,60.6657609 L252.798338,57.3804348 L258.820919,57.3804348 L258.820919,65.3641304 L237.828916,65.3641304 L237.828916,60.6657609 L240.022111,60.6657609 L240.022111,45.3342391 L237.828916,45.3342391 L237.828916,40.6711957 Z M260.561549,40.6711957 L271.875647,40.6711957 C273.894788,40.6711957 275.530964,40.8595996 276.784225,41.236413 C278.037485,41.6132265 279.01803,42.1313373 279.72589,42.7907609 C280.43375,43.4501845 280.909517,44.221463 281.153207,45.1046196 C281.396896,45.9877762 281.518739,46.9356833 281.518739,47.9483696 C281.518739,48.631344 281.391094,49.2672072 281.135801,49.8559783 C280.880507,50.4447493 280.526582,50.9569725 280.074016,51.392663 C279.62145,51.8283536 279.087662,52.1933862 278.472636,52.4877717 C277.85761,52.7821573 277.190375,52.9764488 276.470911,53.0706522 C277.074333,53.1648555 277.648735,53.3591471 278.194135,53.6535326 C278.739535,53.9479181 279.221105,54.3188383 279.638858,54.7663043 C280.056612,55.2137704 280.39313,55.7201059 280.648424,56.2853261 C280.903718,56.8505463 281.031363,57.4510838 281.031363,58.0869565 C281.031363,58.8405835 281.089383,59.4293457 281.205426,59.8532609 C281.321468,60.277176 281.541946,60.4891304 281.866865,60.4891304 C282.400661,60.4891304 282.667555,60.1123226 282.667555,59.3586957 L282.667555,58.1929348 L285,58.1929348 L285,60.1358696 C285,60.8659457 284.918771,61.5724604 284.756312,62.2554348 C284.593852,62.9384092 284.315354,63.5389467 283.920809,64.0570652 C283.526264,64.5751837 283.00408,64.9932049 282.354242,65.3111413 C281.704403,65.6290777 280.892117,65.7880435 279.917359,65.7880435 C277.619716,65.7880435 275.919717,65.2110565 274.817312,64.0570652 C273.714907,62.9030739 273.163713,61.2898654 273.163713,59.2173913 C273.163713,58.4166627 273.128901,57.757249 273.059276,57.2391304 C272.98965,56.7210119 272.832995,56.314766 272.589305,56.0203804 C272.345616,55.7259949 271.991691,55.5199281 271.527521,55.4021739 C271.06335,55.2844197 270.448334,55.2255435 269.682453,55.2255435 L269.682453,60.701087 L271.806022,60.701087 L271.806022,65.3641304 L260.561549,65.3641304 L260.561549,60.701087 L262.511055,60.701087 L262.511055,45.298913 L260.561549,45.298913 L260.561549,40.6711957 Z M269.682453,45.263587 L269.682453,51.2690217 L271.24902,51.2690217 C272.270195,51.2690217 273.082481,51.0276292 273.685902,50.544837 C274.289324,50.0620447 274.59103,49.3496424 274.59103,48.4076087 C274.59103,47.3478208 274.318334,46.5588794 273.772934,46.0407609 C273.227534,45.5226423 272.444258,45.263587 271.423083,45.263587 L269.682453,45.263587 Z" id="brokmeier" fill="#FEFEFE"></path>
                    <path d="M63,37.4278449 L63,2 L65.47225,2 L65.47225,19.5766052 C65.749513,19.0731062 66.1114899,18.5772434 66.5581915,18.0890019 C67.0048931,17.6007604 67.5209028,17.1659269 68.1062359,16.7844882 C68.7377795,16.3725345 69.4155235,16.0597595 70.1394882,15.8461538 C70.9096634,15.6172907 71.7491417,15.5028608 72.6579484,15.5028608 C73.6745797,15.5028608 74.6449858,15.6554339 75.569196,15.9605849 C76.5242133,16.2809933 77.3867965,16.7844848 78.1569717,17.4710744 C78.9117434,18.157664 79.5201726,19.0197024 79.9822777,20.0572155 C80.4597863,21.1405013 80.6985371,22.3839726 80.6985371,23.7876669 L80.6985371,37.4278449 L78.2493923,37.4278449 L78.2493923,24.1538462 C78.2493923,23.0858179 78.0876579,22.1474929 77.7641843,21.338843 C77.4407107,20.530193 77.0171208,19.8664997 76.4934016,19.3477432 C75.985086,18.8442441 75.3535518,18.4704399 74.5987802,18.2263191 C73.890219,17.9974559 73.1354587,17.8830261 72.3344765,17.8830261 C71.3794593,17.8830261 70.5322793,18.0203419 69.7929111,18.2949777 C69.1151569,18.5390985 68.4682195,18.9205314 67.8520794,19.439288 C67.2975532,19.8970144 66.8277534,20.4081345 66.4426658,20.9726637 C66.0267712,21.567708 65.7033025,22.1322287 65.47225,22.6662428 L65.47225,37.4278449 L63,37.4278449 Z M83.4122243,26.6484425 C83.4122243,25.1379454 83.67408,23.7190149 84.1977991,22.3916084 C84.7523252,20.9879142 85.4685774,19.8054721 86.3465771,18.8442467 C87.3015943,17.8067335 88.4029283,16.9904671 89.6506121,16.3954228 C90.8982959,15.8003785 92.3153969,15.5028608 93.9019578,15.5028608 C95.4423082,15.5028608 96.8363043,15.7774925 98.0839881,16.3267641 C99.3624789,16.8912934 100.479216,17.6694165 101.434233,18.661157 C102.373847,19.63764 103.120906,20.8200821 103.675432,22.2085188 C104.229958,23.5969554 104.507217,25.1074299 104.507217,26.7399873 L104.507217,27.2205976 L104.461007,27.7240941 L85.8613692,27.7240941 C85.8767727,28.5174865 86.0847168,29.4024109 86.4852079,30.3788938 C86.854892,31.2943466 87.4017082,32.133499 88.1256729,32.8963764 C88.8496375,33.6592537 89.7199224,34.300061 90.7365537,34.8188175 C91.7685884,35.3375741 92.9854469,35.5969485 94.3871657,35.5969485 C95.2497619,35.5969485 96.0507321,35.4977759 96.7901003,35.2994278 C97.5448719,35.1010797 98.2380192,34.826448 98.8695629,34.4755245 C99.5319135,34.1093434 100.094133,33.7202818 100.556238,33.308328 C101.00294,32.9116318 101.434231,32.4539123 101.850126,31.9351558 L103.513696,33.6287349 C102.404644,34.9408839 101.056857,35.9936388 99.4702965,36.7870312 C97.8683321,37.5956811 96.1585689,38 94.3409555,38 C92.7543946,38 91.2987853,37.7024823 89.974084,37.107438 C88.6493827,36.5123937 87.5018389,35.6961272 86.5314182,34.6586141 C85.5609975,33.6363585 84.7985355,32.4310305 84.2440094,31.0425938 C83.6894832,29.6694146 83.4122243,28.2047122 83.4122243,26.6484425 Z M85.9537897,25.481246 L101.965652,25.481246 C101.950248,24.9624895 101.788514,24.2301382 101.480444,23.2841704 C101.203181,22.4144902 100.748784,21.5753378 100.11724,20.7666879 C99.5165038,20.0038106 98.6924287,19.3248599 97.6449904,18.7298156 C96.6437627,18.1652864 95.4115009,17.8830261 93.9481681,17.8830261 C92.4848352,17.8830261 91.2525734,18.1729151 90.2513457,18.7527018 C89.2347145,19.3477461 88.418341,20.0343254 87.8022009,20.8124603 C87.1552538,21.6363678 86.7008572,22.4678915 86.4389977,23.3070566 C86.1309276,24.268282 85.9691932,24.9930046 85.9537897,25.481246 Z M106.065647,30.8137317 C106.065647,29.6541582 106.3121,28.609032 106.805012,27.6783217 C107.267117,26.8086416 107.914054,26.0534043 108.745843,25.4125874 C109.531422,24.8022856 110.455618,24.3369374 111.51846,24.0165289 C112.504284,23.711378 113.574812,23.5588048 114.730075,23.5588048 C115.900741,23.5588048 117.094495,23.711378 118.311371,24.0165289 C119.574459,24.3369374 120.745107,24.8556862 121.823353,25.5727908 L121.823353,23.9707565 C121.823353,22.6586076 121.607707,21.6058527 121.176409,20.8124603 C120.745111,20.0343254 120.205996,19.4164041 119.559049,18.9586777 C118.927505,18.5162088 118.234358,18.2263198 117.479586,18.0890019 C116.709411,17.951684 116.031667,17.8830261 115.446334,17.8830261 C114.229457,17.8830261 113.012599,18.0661139 111.795722,18.432295 C110.532635,18.8137336 109.415897,19.2867105 108.445477,19.8512397 L107.359535,17.7457088 C108.145114,17.2574674 109.261851,16.7539759 110.70978,16.2352193 C112.080692,15.7469779 113.674931,15.5028608 115.492544,15.5028608 C116.971281,15.5028608 118.265156,15.7088346 119.374208,16.1207883 C120.452453,16.5174845 121.368948,17.0896339 122.123719,17.8372537 C122.816877,18.5238432 123.355992,19.3629957 123.741079,20.3547362 C124.110763,21.3159616 124.295603,22.3382018 124.295603,23.4214876 L124.295603,37.4278449 L122.077509,37.4278449 L122.077509,33.7202797 C121.060878,35.0934589 119.836318,36.1462138 118.403792,36.878576 C116.940459,37.6261957 115.477148,38 114.013815,38 C113.058798,38 112.111497,37.8397982 111.171883,37.5193897 C110.216866,37.1989812 109.369686,36.7488904 108.630318,36.1691036 C107.860143,35.5740593 107.244012,34.8264508 106.781907,33.9262556 C106.304398,33.0108028 106.065647,31.9733052 106.065647,30.8137317 Z M108.630318,30.8137317 C108.630318,31.6223817 108.799754,32.3318469 109.138631,32.9421488 C109.492911,33.5524506 109.95501,34.0559421 110.524939,34.4526383 C111.125676,34.864592 111.75721,35.154481 112.419561,35.322314 C113.112718,35.5054046 113.805866,35.5969485 114.499023,35.5969485 C115.330812,35.5969485 116.108678,35.47489 116.832642,35.2307692 C117.587414,34.9713909 118.265158,34.6433586 118.865895,34.2466624 C119.482035,33.8347087 120.044254,33.3693605 120.55257,32.8506039 C121.060886,32.3165898 121.484475,31.797841 121.823353,31.294342 L121.823353,27.6783217 C121.006967,27.1443076 119.998053,26.7171027 118.796579,26.3966942 C117.533492,26.0610282 116.355142,25.8931977 115.261493,25.8931977 C114.429704,25.8931977 113.621032,25.9847416 112.835453,26.1678322 C112.034471,26.3509227 111.32592,26.6484404 110.70978,27.0603942 C110.062833,27.4876054 109.554525,28.0063542 109.184841,28.6166561 C108.815157,29.2422155 108.630318,29.9745667 108.630318,30.8137317 Z M126.616502,18.2949777 L126.616502,16.0521297 L131.306846,16.0521297 L131.306846,9.16338207 L133.779096,9.16338207 L133.779096,16.0521297 L141.103425,16.0521297 L141.103425,18.2949777 L133.779096,18.2949777 L133.779096,31.2027972 C133.779096,31.7520689 133.840709,32.3089609 133.963937,32.8734901 C134.071761,33.3922467 134.272004,33.8652235 134.564671,34.2924348 C134.82653,34.6738735 135.211612,34.9942772 135.719928,35.2536554 C136.182033,35.4825186 136.759655,35.5969485 137.452813,35.5969485 C138.207585,35.5969485 138.854522,35.4901473 139.393645,35.2765416 C140.025188,35.0324209 140.487287,34.8111898 140.779953,34.6128417 L141.727264,36.7183725 C141.09572,37.0845536 140.371766,37.3973286 139.555381,37.6567069 C138.831416,37.8855701 138.068954,38 137.267972,38 C136.328358,38 135.473477,37.8321695 134.703301,37.4965035 C133.979337,37.176095 133.355504,36.7260042 132.831785,36.1462174 C132.323469,35.5664307 131.938388,34.8951087 131.676528,34.1322314 C131.430072,33.3998692 131.306846,32.5759741 131.306846,31.6605213 L131.306846,18.2949777 L126.616502,18.2949777 Z M144.903054,37.4278449 L144.903054,2 L147.375304,2 L147.375304,19.5766052 C147.652567,19.0731062 148.014544,18.5772434 148.461245,18.0890019 C148.907947,17.6007604 149.423957,17.1659269 150.00929,16.7844882 C150.640833,16.3725345 151.318577,16.0597595 152.042542,15.8461538 C152.812717,15.6172907 153.652196,15.5028608 154.561002,15.5028608 C155.577634,15.5028608 156.54804,15.6554339 157.47225,15.9605849 C158.427267,16.2809933 159.28985,16.7844848 160.060026,17.4710744 C160.814797,18.157664 161.423227,19.0197024 161.885332,20.0572155 C162.36284,21.1405013 162.601591,22.3839726 162.601591,23.7876669 L162.601591,37.4278449 L160.152446,37.4278449 L160.152446,24.1538462 C160.152446,23.0858179 159.990712,22.1474929 159.667238,21.338843 C159.343765,20.530193 158.920175,19.8664997 158.396456,19.3477432 C157.88814,18.8442441 157.256606,18.4704399 156.501834,18.2263191 C155.793273,17.9974559 155.038513,17.8830261 154.23753,17.8830261 C153.282513,17.8830261 152.435333,18.0203419 151.695965,18.2949777 C151.018211,18.5390985 150.371273,18.9205314 149.755133,19.439288 C149.200607,19.8970144 148.730807,20.4081345 148.34572,20.9726637 C147.929825,21.567708 147.606356,22.1322287 147.375304,22.6662428 L147.375304,37.4278449 L144.903054,37.4278449 Z M165.315278,26.6484425 C165.315278,25.1379454 165.577134,23.7190149 166.100853,22.3916084 C166.655379,20.9879142 167.371631,19.8054721 168.249631,18.8442467 C169.204648,17.8067335 170.305982,16.9904671 171.553666,16.3954228 C172.80135,15.8003785 174.218451,15.5028608 175.805012,15.5028608 C177.345362,15.5028608 178.739358,15.7774925 179.987042,16.3267641 C181.265533,16.8912934 182.38227,17.6694165 183.337287,18.661157 C184.276901,19.63764 185.02396,20.8200821 185.578486,22.2085188 C186.133012,23.5969554 186.410271,25.1074299 186.410271,26.7399873 L186.410271,27.2205976 L186.364061,27.7240941 L167.764423,27.7240941 C167.779827,28.5174865 167.987771,29.4024109 168.388262,30.3788938 C168.757946,31.2943466 169.304762,32.133499 170.028727,32.8963764 C170.752691,33.6592537 171.622976,34.300061 172.639608,34.8188175 C173.671642,35.3375741 174.888501,35.5969485 176.29022,35.5969485 C177.152816,35.5969485 177.953786,35.4977759 178.693154,35.2994278 C179.447926,35.1010797 180.141073,34.826448 180.772617,34.4755245 C181.434967,34.1093434 181.997187,33.7202818 182.459292,33.308328 C182.905994,32.9116318 183.337285,32.4539123 183.75318,31.9351558 L185.41675,33.6287349 C184.307698,34.9408839 182.959911,35.9936388 181.37335,36.7870312 C179.771386,37.5956811 178.061623,38 176.244009,38 C174.657449,38 173.201839,37.7024823 171.877138,37.107438 C170.552437,36.5123937 169.404893,35.6961272 168.434472,34.6586141 C167.464051,33.6363585 166.701589,32.4310305 166.147063,31.0425938 C165.592537,29.6694146 165.315278,28.2047122 165.315278,26.6484425 Z M167.856844,25.481246 L183.868706,25.481246 C183.853302,24.9624895 183.691568,24.2301382 183.383498,23.2841704 C183.106235,22.4144902 182.651838,21.5753378 182.020294,20.7666879 C181.419558,20.0038106 180.595483,19.3248599 179.548044,18.7298156 C178.546817,18.1652864 177.314555,17.8830261 175.851222,17.8830261 C174.387889,17.8830261 173.155627,18.1729151 172.1544,18.7527018 C171.137768,19.3477461 170.321395,20.0343254 169.705255,20.8124603 C169.058308,21.6363678 168.603911,22.4678915 168.342052,23.3070566 C168.033982,24.268282 167.872247,24.9930046 167.856844,25.481246 Z M189.100853,37.4278449 L189.100853,16.0521297 L191.342052,16.0521297 L191.342052,19.5308328 C191.603911,19.0120762 191.92738,18.5162134 192.312467,18.0432295 C192.712959,17.5397305 193.175057,17.1125256 193.698776,16.761602 C194.268705,16.3649058 194.869433,16.0597595 195.500977,15.8461538 C196.178731,15.6172907 196.918088,15.5028608 197.71907,15.5028608 C198.227386,15.5028608 198.781904,15.5486327 199.38264,15.640178 C200.014184,15.7317233 200.553298,15.8690391 201,16.0521297 L199.937164,18.4094088 C199.644497,18.2568333 199.28252,18.1347748 198.851222,18.0432295 C198.373713,17.9364267 197.857704,17.8830261 197.303178,17.8830261 C196.533002,17.8830261 195.86296,17.9974559 195.29303,18.2263191 C194.692294,18.4704399 194.160881,18.7832149 193.698776,19.1646535 C193.236671,19.5613497 192.828484,20.0114406 192.474203,20.5149396 C192.104519,21.0642113 191.804156,21.5600741 191.573103,22.0025429 L191.573103,37.4278449 L189.100853,37.4278449 Z" id="heather" fill="#FEFEFE" transform="translate(132.000000, 20.000000) rotate(-360.000000) translate(-132.000000, -20.000000) "></path>
                    <g id="icon" transform="translate(34.000000, 34.000000) rotate(-315.000000) translate(-34.000000, -34.000000) translate(10.000000, 11.000000)">
                        <path d="M36.2594066,33.3824559 C36.2594066,33.3824559 42.1703024,26.9590755 42.1703024,20.802889 C42.1703024,14.6467025 39.9243844,11.0889325 36.2594066,11.0889325 C32.5944288,11.0889325 29.9719597,14.6467025 29.9719597,20.802889 C29.9719597,26.9590755 36.2594066,33.3824559 36.2594066,33.3824559 Z" id="Oval" fill="#E0A351" transform="translate(36.071131, 22.235694) rotate(-270.000000) translate(-36.071131, -22.235694) "></path>
                        <path d="M23.7506822,22.2935235 C23.7506822,22.2935235 29.661578,15.8701431 29.661578,9.71395655 C29.661578,3.55777003 27.41566,-3.44613227e-13 23.7506822,-3.44613227e-13 C20.0857043,-3.44613227e-13 17.4632353,3.55777003 17.4632353,9.71395655 C17.4632353,15.8701431 23.7506822,22.2935235 23.7506822,22.2935235 Z" id="Oval" fill="#E0A351"></path>
                        <path d="M24.0999469,45.290523 C24.0999469,45.290523 30.0108427,38.8671426 30.0108427,32.7109561 C30.0108427,26.5547696 27.7649247,22.9969995 24.0999469,22.9969995 C20.434969,22.9969995 17.8125,26.5547696 17.8125,32.7109561 C17.8125,38.8671426 24.0999469,45.290523 24.0999469,45.290523 Z" id="Oval" fill="#FFBA5D" transform="translate(23.911671, 34.143761) rotate(-180.000000) translate(-23.911671, -34.143761) "></path>
                        <path d="M11.8954647,33.8859108 C11.8954647,33.8859108 17.8063606,27.4625303 17.8063606,21.3063438 C17.8063606,15.1501573 15.5604426,11.5923873 11.8954647,11.5923873 C8.23048689,11.5923873 5.60801787,15.1501573 5.60801787,21.3063438 C5.60801787,27.4625303 11.8954647,33.8859108 11.8954647,33.8859108 Z" id="Oval" fill="#FFBA5D" transform="translate(11.707189, 22.739149) rotate(-90.000000) translate(-11.707189, -22.739149) "></path>
                    </g>
                </g>
            </g>
        </g>
    </g>
</svg>